:SAMPLES-PER-SECOND 30
:FULLY-SPECIFIED
:DEGREES
615
root  -11.6244 14.1056 -34.6392 -115.874 -16.9258 -174.07
Spine  2.62729 21.277 9.24522
Spine1  -2.38262 16.731 -2.14378
Neck  3.97569e-016 0 -2.38542e-015
Head  1.32444 2.16876 46.7742
R_Clavicle  1.22049 -0.472965 6.36471
R_UpperArm  80.2312 -12.0606 59.9548
R_Forearm  9.71336 33.7985 -33.8107
R_Hand  -8.95559 12.0712 -65.1984
L_Clavicle  -0.430332 8.77444 2.89601
L_UpperArm  -85.6471 62.5709 21.2688
L_Forearm  9.28258 4.20074 14.3319
L_Hand  23.6266 -20.4676 -114.875
L_Thigh  -25.7683 28.7268 3.34444
L_Calf  15.3914 -4.87418 35.1569
L_Foot  -0.736474 -8.37357 10.9225
L_Toe0  0.505162 0.0345699 -6.13609
R_Thigh  -13.952 -52.2782 54.3671
R_Calf  -1.26569 9.1704 54.446
R_Foot  -0.675372 -6.38622 -6.78201
R_Toe0  -1.78853 -0.272788 -17.3235
616
root  -11.3881 14.1267 -36.5 -126.479 -28.5106 -169.623
Spine  2.15049 18.6476 9.88365
Spine1  -1.57966 17.996 2.8932
Neck  3.97569e-016 0 -2.38542e-015
Head  0.48825 0.0714565 48.8708
R_Clavicle  0.793693 -11.2703 5.87524
R_UpperArm  69.4835 -14.6339 65.2237
R_Forearm  16.5732 19.4089 -17.0481
R_Hand  -8.68829 11.5478 -65.3282
L_Clavicle  -0.478716 10.8095 3.8022
L_UpperArm  -89.1722 67.0174 26.7169
L_Forearm  39.4232 4.02586 3.78143
L_Hand  36.3888 -32.7492 -105.502
L_Thigh  -27.7455 35.5593 7.73254
L_Calf  5.9984 -7.10499 39.7948
L_Foot  2.61169 0.781917 10.7196
L_Toe0  0.505162 0.0345605 -6.13609
R_Thigh  -9.24076 -54.4349 46.0728
R_Calf  -1.54013 9.38987 54.7625
R_Foot  -0.79209 -7.49154 -7.53132
R_Toe0  -1.78853 -0.272788 -17.3235
617
root  -11.2757 14.2526 -38.5146 -140.578 -38.2181 -163.804
Spine  2.31825 15.8363 10.3777
Spine1  -0.131643 18.1371 7.21618
Neck  3.97569e-016 0 -2.38542e-015
Head  -0.548008 -2.98616 50.8066
R_Clavicle  0.468011 -20.6005 5.09498
R_UpperArm  54.7884 -16.6897 69.3999
R_Forearm  18.6105 1.06645 -0.780202
R_Hand  -6.97965 9.76282 -58.9473
L_Clavicle  -0.482186 13.1576 4.41214
L_UpperArm  -80.9228 70.5665 36.3415
L_Forearm  56.1377 -1.3836 -1.60986
L_Hand  36.5748 -40.8925 -89.6383
L_Thigh  -22.8557 41.7455 14.4612
L_Calf  -13.3618 -9.44578 43.5051
L_Foot  14.9617 24.7082 20.558
L_Toe0  0.505161 0.0345514 -6.13609
R_Thigh  -3.92321 -56.3538 37.9341
R_Calf  2.00289 9.47182 56.5974
R_Foot  -0.120812 -6.46738 -10.1866
R_Toe0  -1.78853 -0.272788 -17.3235
618
root  -11.5036 14.4698 -40.2847 -156.509 -46.7081 -157.806
Spine  2.85069 13.0465 10.3059
Spine1  1.46558 16.9077 10.2521
Neck  3.97569e-016 0 -2.38542e-015
Head  -2.50013 -5.52314 52.4157
R_Clavicle  0.292443 -28.2478 4.40448
R_UpperArm  42.5413 -18.3077 71.864
R_Forearm  18.6384 -18.6698 15.1578
R_Hand  -6.40924 9.01399 -56.9879
L_Clavicle  -0.43713 17.2187 4.54737
L_UpperArm  -70.1731 70.2161 50.2682
L_Forearm  65.2729 -4.93714 -5.73754
L_Hand  28.2786 -42.7064 -71.1404
L_Thigh  -12.4835 46.7314 22.4385
L_Calf  -30.4701 -12.0096 48.8811
L_Foot  22.9414 35.974 26.5067
L_Toe0  0.505161 0.0345427 -6.13609
R_Thigh  -2.27995 -58.8774 32.6888
R_Calf  6.85648 9.34169 56.1975
R_Foot  0.13965 -5.95817 -11.1955
R_Toe0  -1.78853 -0.272788 -17.3235
619
root  -11.928 14.6925 -41.6829 -176.463 -53.9683 -147.687
Spine  3.84403 10.8338 11.7802
Spine1  2.90822 14.4827 12.3967
Neck  3.97569e-016 0 -2.38542e-015
Head  -5.17938 -6.46547 55.2194
R_Clavicle  0.165193 -34.4468 4.2855
R_UpperArm  33.2479 -22.8288 76.8721
R_Forearm  14.825 -29.9812 19.4657
R_Hand  -7.92432 16.8975 -53.2961
L_Clavicle  -0.356662 21.7825 5.01559
L_UpperArm  -61.4714 68.147 61.8044
L_Forearm  70.0395 -7.77918 -9.0901
L_Hand  20.0684 -40.7533 -56.1443
L_Thigh  -7.20177 49.6757 32.5111
L_Calf  -31.133 -11.5382 50.0556
L_Foot  14.1026 25.7872 17.9322
L_Toe0  0.505161 0.0345343 -6.13609
R_Thigh  -5.57974 -61.1813 26.935
R_Calf  13.7196 10.0008 51.1618
R_Foot  -0.682705 -8.4036 -9.16444
R_Toe0  -1.78853 -0.272788 -17.3235
620
root  -12.547 14.8456 -43.0496 158.64 -57.9902 -133.89
Spine  4.83873 8.23931 13.5776
Spine1  4.2055 12.2891 13.8973
Neck  3.97569e-016 0 -2.38542e-015
Head  -7.2576 -7.19791 59.2888
R_Clavicle  0.0420786 -37.0084 4.7218
R_UpperArm  17.4387 -37.6033 96.0309
R_Forearm  -0.516285 -6.65542 -6.05704
R_Hand  -21.4944 41.1056 -66.2413
L_Clavicle  -0.208859 24.4515 6.30162
L_UpperArm  -54.6104 67.8828 70.1216
L_Forearm  73.62 -9.64734 -11.3344
L_Hand  13.8567 -37.6386 -44.1271
L_Thigh  -3.96356 49.4282 45.0298
L_Calf  -29.251 -9.93686 47.0064
L_Foot  5.03373 4.9609 14.9546
L_Toe0  0.50516 0.0345263 -6.13609
R_Thigh  -5.07224 -61.525 17.4592
R_Calf  18.7132 11.4442 47.5023
R_Foot  -0.820766 -9.05142 -9.19056
R_Toe0  -1.78853 -0.272788 -17.3235
621
root  -13.4472 14.6588 -43.9463 136.184 -59.6437 -124.862
Spine  5.07097 6.24255 13.4873
Spine1  4.79604 8.6893 15.7885
Neck  3.97569e-016 0 -2.38542e-015
Head  -7.69428 -8.40031 62.1262
R_Clavicle  0.0390068 -34.2789 5.35919
R_UpperArm  9.44306 -45.2365 101.657
R_Forearm  -21.5225 5.11077 -13.9293
R_Hand  -27.0577 51.4442 -68.1736
L_Clavicle  -0.114385 24.7255 7.36928
L_UpperArm  -43.8506 69.2485 79.8399
L_Forearm  73.8419 -9.8934 -11.8064
L_Hand  9.49396 -34.1966 -34.6378
L_Thigh  2.89446 46.5792 57.0312
L_Calf  -25.2744 -10.018 46.4834
L_Foot  4.99822 4.54873 15.437
L_Toe0  0.50516 0.0345186 -6.13609
R_Thigh  8.84227 -57.831 4.54389
R_Calf  14.9485 10.8252 49.2495
R_Foot  0.0333984 -6.92289 -11.5704
R_Toe0  -1.78853 -0.272788 -17.3235
622
root  -14.3988 14.5485 -44.5001 115.312 -63.0799 -119.723
Spine  5.37141 6.21347 11.698
Spine1  3.88015 0.539411 16.8319
Neck  3.97569e-016 0 -2.38542e-015
Head  -7.2453 -7.44018 61.4027
R_Clavicle  0.206968 -28.4054 5.76827
R_UpperArm  13.063 -51.4979 94.8159
R_Forearm  -37.3243 7.18923 -12.566
R_Hand  -20.3001 52.8893 -55.3877
L_Clavicle  -0.146204 24.4904 7.08751
L_UpperArm  -28.2066 65.075 87.1891
L_Forearm  66.1783 -6.94203 -6.32489
L_Hand  8.65387 -36.1606 -29.3379
L_Thigh  7.18834 43.8253 67.995
L_Calf  -12.814 -8.46267 46.7984
L_Foot  5.25674 6.46845 13.6788
L_Toe0  0.505159 0.0345113 -6.13609
R_Thigh  13.8181 -52.2943 0.0493372
R_Calf  15.6465 12.6941 45.7063
R_Foot  0.158403 -5.06043 -10.2
R_Toe0  -1.78853 -0.272788 -17.3235
623
root  -15.6182 14.423 -44.5895 81.2573 -68.6706 -101.304
Spine  5.6256 5.01676 10.1969
Spine1  2.12493 -11.488 16.6845
Neck  3.97569e-016 0 -2.38542e-015
Head  -8.08421 -2.55605 58.1695
R_Clavicle  0.403422 -22.7948 5.75223
R_UpperArm  17.2025 -56.411 86.2863
R_Forearm  -44.9834 5.47596 -9.62037
R_Hand  -20.446 53.8004 -55.1341
L_Clavicle  -0.210251 25.3676 5.9806
L_UpperArm  -6.44416 50.8706 88.2647
L_Forearm  46.0047 -3.43365 1.29865
L_Hand  13.5473 -48.8375 -31.8826
L_Thigh  11.39 40.2897 74.3962
L_Calf  -10.244 -5.55273 46.6698
L_Foot  4.6266 5.3473 12.8795
L_Toe0  0.505159 0.0345044 -6.1361
R_Thigh  21.0212 -49.5835 1.36824
R_Calf  13.6193 12.1821 41.4629
R_Foot  1.08969 -0.0453908 -9.40855
R_Toe0  -1.78853 -0.272788 -17.3235
624
root  -17.0284 14.2477 -44.0884 29.9785 -68.0428 -62.9251
Spine  4.62114 -0.548543 9.0403
Spine1  0.352955 -22.2529 15.6724
Neck  3.97569e-016 0 -2.38542e-015
Head  -10.8018 2.77167 55.4198
R_Clavicle  0.56265 -17.9437 5.683
R_UpperArm  19.3597 -61.3456 78.7765
R_Forearm  -49.288 3.67163 -7.63108
R_Hand  -24.9339 56.0226 -61.1399
L_Clavicle  -0.268033 26.9814 5.0051
L_UpperArm  -1.22455 35.6702 82.9312
L_Forearm  24.4269 5.99417 -0.866791
L_Hand  20.4135 -55.4335 -39.9425
L_Thigh  12.6495 37.1976 74.9052
L_Calf  -12.487 -4.98509 49.0107
L_Foot  5.54835 7.75158 13.0985
L_Toe0  0.505159 0.0344978 -6.1361
R_Thigh  21.1045 -51.023 5.70785
R_Calf  10.2358 10.9902 36.6538
R_Foot  -0.0466509 -3.37692 -7.01379
R_Toe0  -1.78853 -0.272788 -17.3235
